<?xml version="1.0" encoding="utf-8"?>
<!-- Generator: Adobe Illustrator 24.1.1, SVG Export Plug-In . SVG Version: 6.00 Build 0)  -->
<svg version="1.1" id="Layer_1" xmlns="http://www.w3.org/2000/svg" xmlns:xlink="http://www.w3.org/1999/xlink" x="0px" y="0px"
	 viewBox="0 0 512 512" style="enable-background:new 0 0 512 512;" xml:space="preserve">
<g>
	<path d="M79.4,221.9h37.2v238.9h55.8V256h55.8v204.8h55.8V256h55.8v204.8h55.8V221.9h37.2c10.3,0,18.6-7.6,18.6-17.1
		c0-5.7-3.1-10.7-7.8-13.8l0,0l-0.3-0.2l-0.5-0.3L265.3,98.7V71.8C298,86.8,325,60.9,367.5,76.5V17.1C325,1.5,298,27.4,265.3,12.4
		V8.5c0-4.7-4.2-8.5-9.3-8.5c-5.1,0-9.3,3.8-9.3,8.5v90.2L69.3,190.5l-0.5,0.3l-0.3,0.2v0c-4.7,3.1-7.7,8.1-7.7,13.8
		C60.8,214.2,69.1,221.9,79.4,221.9z M98,477.9L60.8,512h390.4L414,477.9H98z"/>
</g>
</svg>
